<?xml version="1.0" standalone="no"?>
<!DOCTYPE svg PUBLIC "-//W3C//DTD SVG 20010904//EN"
 "http://www.w3.org/TR/2001/REC-SVG-20010904/DTD/svg10.dtd">
<svg version="1.0" xmlns="http://www.w3.org/2000/svg"
 width="343.000000pt" height="343.000000pt" viewBox="0 0 343.000000 343.000000"
 preserveAspectRatio="xMidYMid meet">
<metadata>
Created by potrace 1.11, written by Peter Selinger 2001-2013
</metadata>
<g transform="translate(0.000000,343.000000) scale(0.100000,-0.100000)"
fill="#000000" stroke="none">
<path d="M1491 3279 c-25 -5 -63 -11 -85 -14 -23 -4 -59 -11 -81 -17 -22 -5
-47 -11 -55 -13 -112 -22 -413 -162 -503 -235 -7 -5 -41 -32 -77 -60 -102 -81
-241 -221 -289 -294 -9 -13 -35 -51 -59 -85 -23 -33 -39 -61 -35 -61 4 0 3 -4
-3 -8 -16 -10 -65 -105 -104 -197 -44 -106 -84 -247 -105 -370 -18 -104 -26
-328 -14 -405 4 -25 10 -65 13 -90 10 -71 16 -100 37 -175 11 -38 21 -74 22
-80 31 -113 133 -315 225 -445 67 -93 207 -244 290 -310 24 -19 49 -40 55 -46
32 -28 173 -113 260 -156 94 -47 244 -103 317 -119 19 -4 46 -10 60 -13 13 -3
42 -8 65 -11 22 -3 63 -10 90 -16 52 -11 340 -8 385 4 14 4 45 9 69 12 128 16
414 115 501 175 14 9 32 19 42 23 26 9 147 95 228 163 106 87 223 216 286 314
16 25 32 47 35 50 23 19 158 303 175 369 2 9 15 57 28 106 69 263 66 557 -8
835 -37 138 -128 330 -223 474 -66 99 -256 302 -338 362 -22 16 -49 37 -59 47
-11 9 -25 17 -32 17 -7 0 -14 4 -16 8 -12 30 -323 182 -403 198 -11 2 -31 8
-45 13 -14 5 -47 14 -75 20 -50 11 -74 15 -170 31 -64 10 -346 9 -404 -1z
m388 -84 c91 -12 117 -17 208 -41 430 -111 800 -419 992 -824 57 -121 81 -189
111 -315 28 -115 35 -189 35 -350 -1 -176 -16 -288 -59 -427 -8 -27 -12 -48
-9 -48 3 0 1 -6 -4 -12 -6 -7 -20 -40 -32 -73 -29 -78 -95 -205 -143 -275 -85
-124 -102 -144 -198 -241 -210 -213 -465 -352 -770 -420 -90 -20 -133 -23
-300 -24 -199 0 -220 2 -350 30 -104 22 -97 20 -180 50 -142 52 -357 172 -448
250 -97 84 -282 280 -282 299 0 4 -8 16 -19 27 -47 51 -191 350 -206 430 -2
11 -6 23 -9 27 -3 5 -7 19 -10 33 -2 13 -12 62 -22 109 -25 125 -25 415 0 536
2 12 7 37 10 56 3 20 10 47 15 62 6 14 9 26 7 26 -2 0 11 41 30 92 18 50 31
95 28 100 -3 4 -1 8 4 8 5 0 17 19 28 43 30 68 110 201 166 274 104 137 190
216 413 381 50 37 370 177 370 162 0 -1 14 4 30 11 17 6 39 12 50 13 11 1 34
6 50 9 55 13 80 17 150 23 39 3 71 7 73 9 5 5 221 -3 271 -10z"/>
<path d="M1457 3124 c-2 -2 -105 -16 -124 -17 -7 0 -10 -4 -7 -9 4 -5 12 -7
19 -4 19 7 25 -16 40 -139 1 -11 3 -20 4 -20 1 0 4 -27 7 -61 4 -56 3 -61 -18
-71 -21 -10 -20 -11 12 -8 19 1 55 6 80 10 25 4 54 8 65 10 51 7 99 41 106 75
6 30 -11 67 -38 80 -16 8 -30 16 -32 17 -2 2 4 12 14 24 31 34 29 64 -6 93
-25 21 -40 26 -75 25 -25 -2 -45 -4 -47 -5z m33 -34 c11 -6 24 -20 30 -31 16
-28 -11 -69 -45 -69 -24 0 -25 3 -25 55 0 57 6 63 40 45z m62 -184 c7 -39 -12
-66 -46 -66 -29 0 -31 3 -33 37 -1 20 -4 47 -7 59 -5 18 -1 23 16 26 27 5 66
-26 70 -56z"/>
<path d="M1820 3028 c0 -4 4 -8 9 -8 10 0 21 -36 13 -45 -3 -3 -6 -13 -7 -23
-6 -63 -18 -114 -31 -119 -7 -3 -11 -9 -8 -14 3 -5 8 -7 12 -5 4 2 28 1 55 -4
26 -4 47 -3 47 2 0 4 -5 8 -11 8 -16 0 -3 108 17 137 12 19 18 21 34 13 39
-21 68 -2 53 36 -4 12 -14 14 -37 10 -17 -4 -32 -11 -34 -16 -6 -18 -22 -10
-22 10 0 14 -7 20 -22 21 -13 0 -33 2 -45 3 -13 2 -23 -1 -23 -6z"/>
<path d="M2203 2914 c-41 -21 -62 -53 -70 -109 -5 -41 -3 -47 28 -76 28 -26
39 -30 68 -25 19 3 41 11 48 19 12 12 9 13 -17 9 -16 -2 -37 1 -45 8 -15 12
-21 71 -9 83 3 3 29 -3 57 -14 57 -23 67 -17 62 38 -3 32 -29 73 -46 73 -4 0
-6 -15 -3 -32 6 -45 -7 -64 -35 -49 -26 15 -27 32 -1 51 22 16 27 40 8 40 -7
0 -27 -8 -45 -16z"/>
<path d="M867 2770 c-8 -11 -17 -17 -20 -13 -4 3 -7 4 -7 1 0 -3 -7 -22 -15
-41 -13 -32 -13 -37 1 -51 20 -20 29 -20 49 1 16 16 16 18 -4 34 -27 22 -27
33 4 47 14 6 25 8 25 4 0 -4 16 -32 35 -61 22 -33 33 -61 30 -70 -6 -14 -9
-13 -25 6 -10 13 -16 32 -13 43 9 33 -14 22 -27 -12 -24 -68 -23 -79 12 -106
23 -18 51 -2 68 38 10 23 17 29 32 24 13 -4 26 2 39 17 22 26 25 51 5 43 -8
-3 -27 12 -47 38 -18 24 -42 51 -53 61 -26 23 -71 22 -89 -3z"/>
<path d="M2516 2733 c-10 -3 -28 -14 -39 -24 -12 -10 -24 -19 -28 -19 -8 0
-28 -46 -34 -83 -4 -20 2 -34 22 -55 34 -35 72 -44 104 -25 13 8 17 12 9 10
-48 -14 -88 39 -64 86 17 32 15 32 42 10 66 -56 64 -56 74 -42 21 33 25 46 22
72 -3 26 -36 67 -55 67 -4 0 -13 2 -21 4 -7 2 -22 1 -32 -1z m67 -37 c3 -7 -1
-23 -9 -35 -12 -17 -19 -19 -35 -11 -10 6 -19 14 -19 18 0 5 47 40 56 42 1 0
4 -6 7 -14z"/>
<path d="M1570 2682 c-27 -15 -42 -17 -66 -10 -35 9 -77 -2 -108 -30 -10 -9
-30 -17 -45 -18 -14 -1 -36 -2 -48 -2 -12 -1 -36 -17 -53 -36 -18 -19 -40 -33
-49 -31 -31 5 -84 -30 -107 -70 -6 -10 -23 -22 -38 -26 -30 -8 -86 -61 -86
-82 0 -7 -20 -27 -44 -44 -33 -24 -48 -43 -57 -73 -7 -23 -21 -48 -32 -55 -31
-22 -57 -67 -57 -100 0 -19 -10 -41 -27 -60 -22 -23 -28 -40 -30 -81 -1 -34
-10 -67 -25 -93 -20 -35 -21 -44 -11 -81 8 -33 8 -48 -3 -69 -18 -34 -18 -92
0 -116 10 -14 11 -26 5 -43 -16 -41 -10 -87 15 -121 19 -25 23 -39 16 -55 -10
-27 11 -92 35 -110 16 -12 20 -26 24 -83 0 -12 17 -36 36 -54 19 -18 40 -49
46 -69 13 -40 43 -77 71 -86 10 -3 28 -25 39 -49 16 -35 30 -47 62 -60 27 -10
52 -31 69 -55 21 -30 35 -39 67 -45 27 -4 52 -18 75 -41 28 -28 41 -34 78 -34
28 0 51 -6 64 -18 31 -28 66 -39 103 -31 25 5 44 2 73 -13 34 -18 44 -19 84
-9 35 9 53 9 80 -1 30 -11 42 -10 82 6 26 10 58 17 72 16 54 -5 74 -1 104 21
17 13 45 24 61 25 17 1 37 2 46 3 9 1 32 16 52 35 23 21 50 35 76 40 32 5 46
14 63 42 15 22 40 42 70 55 37 17 50 29 62 60 9 22 26 44 39 49 39 17 58 37
68 76 6 23 26 52 46 71 27 25 37 42 40 75 3 24 13 52 23 63 30 34 42 65 39
104 -2 25 4 49 19 73 24 38 27 63 13 101 -7 17 -5 33 5 53 20 38 20 71 1 116
-8 20 -12 39 -9 43 15 15 9 91 -10 122 -11 18 -19 43 -18 55 5 53 -2 75 -33
108 -17 19 -31 36 -29 37 1 2 2 18 2 37 0 26 -9 42 -40 72 -22 22 -41 48 -44
59 -10 50 -20 65 -53 80 -21 10 -40 29 -48 49 -16 39 -39 59 -87 79 -21 9 -38
20 -38 25 0 21 -42 55 -85 67 -25 8 -59 28 -76 45 -24 23 -39 30 -69 30 -26 0
-55 10 -85 29 -39 25 -50 27 -87 21 -34 -7 -47 -5 -62 8 -12 12 -32 16 -62 14
-75 -4 -108 -4 -139 3 -20 4 -41 0 -65 -13z m232 -91 c42 -3 83 -12 90 -18 6
-7 34 -13 62 -13 40 0 55 -5 76 -25 15 -14 44 -28 66 -32 26 -4 53 -19 82 -45
23 -21 56 -41 72 -45 17 -3 30 -11 30 -18 0 -15 75 -85 90 -85 6 0 19 -20 30
-44 10 -24 32 -54 48 -66 18 -14 33 -35 36 -55 4 -17 22 -50 41 -72 27 -32 35
-50 35 -80 0 -21 9 -53 20 -71 12 -20 20 -50 20 -78 0 -25 7 -61 16 -79 12
-25 13 -38 5 -54 -14 -25 -14 -72 -1 -106 7 -19 6 -34 -5 -55 -8 -16 -15 -52
-15 -80 0 -36 -6 -61 -20 -80 -10 -15 -22 -47 -26 -71 -4 -26 -18 -57 -35 -76
-15 -18 -31 -49 -35 -69 -4 -24 -19 -48 -42 -68 -19 -17 -41 -46 -49 -64 -7
-18 -24 -37 -36 -41 -25 -10 -87 -75 -87 -91 0 -6 -11 -10 -25 -10 -16 0 -42
-15 -69 -40 -26 -24 -53 -40 -68 -40 -13 0 -44 -13 -69 -28 -27 -18 -65 -31
-98 -35 -29 -3 -60 -12 -67 -18 -13 -10 -65 -16 -174 -18 -56 -2 -186 15 -207
27 -12 6 -42 12 -66 12 -28 0 -49 6 -58 16 -19 23 -64 44 -94 44 -17 0 -39 13
-64 40 -21 22 -51 43 -67 46 -18 4 -37 18 -49 37 -11 18 -37 43 -57 56 -22 14
-43 39 -52 61 -8 21 -31 51 -51 65 -25 20 -35 35 -35 54 0 17 -14 43 -35 68
-27 32 -35 50 -35 80 0 21 -9 53 -20 71 -12 20 -20 50 -20 78 0 24 -7 61 -15
80 -10 25 -12 41 -5 54 13 24 13 86 0 111 -8 14 -7 27 5 48 8 17 15 53 15 81
0 36 6 59 19 77 11 13 23 45 27 71 4 29 18 61 35 82 16 19 31 50 35 67 4 20
19 42 40 58 18 14 39 41 46 61 9 25 24 42 50 55 21 11 49 37 63 59 16 25 33
40 45 40 11 0 39 17 63 39 27 25 55 40 80 44 22 3 54 18 72 32 24 18 46 25 77
25 25 0 54 7 68 17 18 13 41 17 85 15 33 -1 67 2 75 8 8 6 24 7 35 4 11 -4 55
-9 97 -13z"/>
<path d="M1664 2425 l-27 -25 13 -98 c10 -80 10 -103 0 -123 -18 -33 -70 -79
-91 -79 -9 0 -43 -13 -74 -30 -54 -28 -59 -29 -89 -16 -17 8 -40 16 -50 18
-11 2 -40 31 -65 66 -25 35 -59 69 -74 77 -27 14 -29 13 -46 -16 -11 -17 -18
-38 -16 -47 2 -10 4 -24 4 -33 1 -9 28 -31 60 -50 61 -35 86 -68 76 -99 -4
-13 -1 -17 12 -16 24 1 19 -23 -19 -102 -16 -34 -32 -80 -35 -101 -5 -38 -6
-39 -57 -45 -28 -3 -94 -6 -147 -6 -103 0 -112 -4 -124 -53 -11 -40 15 -56 93
-57 34 0 62 4 62 9 0 15 80 18 99 4 9 -7 26 -13 38 -13 19 0 25 -11 43 -71 12
-38 35 -91 51 -117 29 -46 29 -47 9 -56 -11 -5 -20 -17 -20 -27 0 -26 -55 -85
-117 -125 -47 -30 -53 -38 -53 -67 0 -26 6 -36 25 -45 32 -15 65 -15 65 -2 0
6 5 10 10 10 17 0 49 37 65 76 17 41 49 70 87 79 15 4 28 13 30 21 2 11 11 9
39 -10 20 -14 55 -31 78 -38 22 -7 41 -16 41 -20 0 -5 12 -8 26 -8 32 0 66
-18 59 -30 -3 -5 -1 -19 5 -31 9 -15 8 -44 0 -111 -11 -82 -10 -93 6 -124 16
-29 24 -34 55 -34 24 0 39 5 43 16 9 24 7 152 -2 156 -12 4 -24 58 -14 58 5 0
14 12 21 27 11 23 10 29 -3 39 -22 16 -20 24 6 24 23 0 130 31 138 40 3 3 25
16 50 28 38 19 46 20 53 7 4 -8 17 -15 27 -15 10 0 34 -18 52 -41 56 -70 112
-119 135 -119 26 0 63 44 62 74 0 14 -25 39 -80 79 -62 45 -79 63 -79 82 0 15
-6 25 -14 25 -28 0 -27 21 1 64 16 24 37 70 47 102 23 75 31 90 46 86 7 -1 23
4 36 13 29 19 51 19 88 0 41 -21 128 -20 156 3 19 16 22 24 16 55 -7 36 -9 37
-49 38 -139 2 -244 8 -259 14 -10 4 -18 15 -18 24 0 9 -14 43 -30 76 -33 67
-39 130 -16 173 15 27 47 61 124 127 47 41 55 77 22 95 -48 26 -115 -13 -172
-99 -13 -18 -43 -44 -67 -57 l-44 -23 -41 23 c-23 13 -64 31 -91 40 -28 9 -56
25 -63 36 -15 25 -31 141 -32 232 0 65 0 66 -31 77 -40 14 -33 15 -65 -14z"/>
<path d="M594 2497 c-45 -53 -17 -128 61 -165 30 -15 46 -17 67 -10 52 18 80
75 62 122 -9 24 -22 19 -17 -6 2 -13 0 -29 -5 -36 -17 -26 -102 -19 -102 8 0
5 6 15 13 22 18 18 47 61 47 69 0 10 -31 21 -68 24 -25 2 -37 -4 -58 -28z m66
-22 c11 -13 9 -19 -8 -35 -21 -20 -21 -20 -36 2 -9 12 -16 28 -16 35 0 18 45
16 60 -2z"/>
<path d="M2780 2492 c0 -5 -10 -13 -22 -17 -21 -7 -20 -8 9 -12 28 -4 63 -33
63 -53 0 -4 -39 -7 -87 -9 -151 -4 -150 -2 -79 -103 43 -61 49 -66 67 -55 26
16 24 24 -8 32 -16 3 -36 17 -46 31 -17 23 -17 24 0 25 10 0 60 3 112 5 52 2
96 6 99 9 5 5 -86 142 -100 151 -4 3 -8 1 -8 -4z"/>
<path d="M339 2232 c12 -9 10 -15 -12 -41 -49 -58 -43 -128 14 -160 39 -22 87
-7 143 44 34 31 59 45 77 45 54 0 58 -65 7 -103 -32 -24 -32 -24 -80 -26 -32
-2 -31 -3 22 -25 58 -24 73 -25 64 -1 -3 8 6 30 21 49 25 33 30 55 24 108 -4
28 -47 62 -82 64 -30 2 -97 -28 -97 -44 0 -9 -69 -56 -86 -58 -20 -3 -43 22
-39 43 2 10 4 23 4 28 2 18 57 45 93 46 l33 1 -31 13 c-42 19 -94 30 -75 17z"/>
<path d="M2817 2099 c-32 -32 -36 -40 -28 -62 5 -14 8 -27 6 -29 -9 -9 33 -46
58 -52 l29 -7 -25 25 c-29 29 -26 58 6 81 29 21 47 19 47 -5 0 -16 16 -64 27
-79 7 -11 60 23 71 46 19 41 15 62 -18 94 -26 27 -36 30 -82 28 -46 -2 -58 -7
-91 -40z m170 -17 c15 -9 5 -25 -25 -41 -27 -15 -27 -15 -36 22 -6 24 -4 27
21 27 16 0 33 -4 40 -8z"/>
<path d="M2986 1483 c-3 -3 -6 -14 -6 -24 0 -15 -6 -18 -32 -13 l-33 5 23 -19
c26 -24 28 -32 7 -32 -8 0 -15 -6 -15 -14 0 -22 16 -28 30 -11 19 22 28 18 22
-10 -3 -19 0 -25 13 -25 13 0 16 6 13 25 -6 29 -5 29 22 13 26 -17 40 0 15 18
-19 14 -19 16 -2 25 23 13 22 29 -3 29 -11 0 -20 -4 -20 -10 0 -5 -4 -10 -9
-10 -4 0 -7 11 -6 25 3 25 -7 40 -19 28z"/>
<path d="M414 1453 c7 -26 7 -26 -18 -10 -31 21 -49 2 -20 -20 18 -13 18 -15
2 -24 -24 -13 -23 -29 2 -29 11 0 20 5 20 10 0 6 4 10 9 10 4 0 6 -11 3 -25
-3 -18 0 -25 12 -25 9 0 16 8 16 20 0 21 15 27 25 10 8 -13 25 -3 25 16 0 8
-7 14 -15 14 -8 0 -15 4 -15 9 0 5 7 11 15 15 25 9 17 29 -10 24 -19 -4 -25
-1 -25 13 0 11 -7 19 -16 19 -12 0 -15 -6 -10 -27z"/>
<path d="M787 823 c-2 -5 -3 -16 -2 -25 4 -21 -6 -23 -23 -6 -9 9 -15 9 -23 1
-8 -8 -4 -15 12 -27 21 -14 19 -20 -3 -18 -3 1 -9 -5 -12 -13 -7 -19 13 -30
27 -16 18 18 29 13 25 -11 -2 -15 2 -23 12 -23 10 0 14 8 12 23 -4 24 7 29 26
10 9 -9 15 -9 23 -1 8 8 5 14 -12 23 l-22 12 23 18 c16 12 19 19 10 25 -6 4
-17 2 -23 -4 -15 -15 -28 -14 -26 2 4 32 -12 51 -24 30z"/>
<path d="M2612 821 c-7 -4 -10 -15 -6 -24 7 -19 -6 -23 -23 -6 -6 6 -16 8 -23
4 -7 -5 -5 -12 9 -24 19 -17 19 -17 0 -29 -25 -16 -15 -36 11 -22 27 15 32 13
28 -12 -2 -15 2 -23 12 -23 10 0 14 8 12 23 -4 24 7 29 26 10 9 -9 15 -9 23
-1 8 8 5 14 -11 23 l-22 12 22 15 c16 11 19 18 11 26 -8 8 -14 8 -23 -1 -18
-18 -31 -14 -25 8 6 23 -3 32 -21 21z"/>
<path d="M1644 425 c-3 -8 -2 -20 2 -26 5 -9 2 -10 -12 -5 -30 12 -36 12 -41
0 -2 -7 9 -16 24 -22 l28 -10 -27 -7 c-16 -4 -28 -11 -28 -15 0 -16 22 -22 33
-11 17 17 24 13 23 -10 -1 -12 5 -24 11 -26 9 -3 12 5 9 25 -2 22 0 29 10 25
8 -3 14 -9 14 -14 0 -5 7 -9 15 -9 24 0 17 18 -12 34 -27 15 -27 15 -5 16 12
0 25 7 29 15 7 19 -5 34 -15 20 -14 -20 -32 -15 -32 10 0 27 -17 34 -26 10z"/>
</g>
</svg>
